<svg width="54" height="74" viewBox="0 0 54 74" fill="none" xmlns="http://www.w3.org/2000/svg">
<path d="M53.1321 14.2725C54.2984 13.0672 54.3053 11.1033 53.0552 9.99141C49.8448 7.13608 46.2104 4.82224 42.2854 3.14213C37.4394 1.0677 32.2454 1.10333e-07 27 0C21.7546 -1.10333e-07 16.5606 1.0677 11.7146 3.14213C7.78963 4.82224 4.1552 7.13607 0.944803 9.99141C-0.305306 11.1033 -0.298404 13.0672 0.867852 14.2725L24.8883 39.0961C26.0546 40.3013 27.9455 40.3013 29.1117 39.0961L53.1321 14.2725Z" fill="#999999" fill-opacity="0.5"/>
<path fill-rule="evenodd" clip-rule="evenodd" d="M36.6673 73.833H17.914C17.6665 73.8251 17.4318 73.7251 17.2596 73.5541C17.0873 73.3831 16.9911 73.1545 16.9911 72.9165C16.9911 72.6785 17.0873 72.4499 17.2596 72.2789C17.4318 72.1079 17.6665 72.0079 17.914 72H36.6673C36.9149 72.0079 37.1496 72.1079 37.3218 72.2789C37.494 72.4499 37.5903 72.6785 37.5903 72.9165C37.5903 73.1545 37.494 73.3831 37.3218 73.5541C37.1496 73.7251 36.9149 73.8251 36.6673 73.833Z" fill="#2E2E2E"/>
<path fill-rule="evenodd" clip-rule="evenodd" d="M32.3946 49H22.3606C21.5759 48.9979 20.8239 48.6977 20.2687 48.1649C19.7136 47.6321 19.4003 46.9099 19.3973 46.156V37.343C19.4003 36.589 19.7138 35.8668 20.2692 35.3341C20.8246 34.8015 21.5769 34.5016 22.3617 34.5H32.3936C33.1783 34.5018 33.9304 34.8018 34.4857 35.3344C35.0411 35.8671 35.3546 36.5891 35.3579 37.343V46.156C35.3549 46.9101 35.0415 47.6324 34.4861 48.1652C33.9307 48.6981 33.1795 48.9982 32.3946 49Z" fill="#818181"/>
<path fill-rule="evenodd" clip-rule="evenodd" d="M18.3585 33.333H16.4485C16.3126 33.3349 16.1814 33.2848 16.0838 33.1939C15.9863 33.103 15.9302 32.9786 15.928 32.848V28.985C15.9305 28.8545 15.9866 28.7302 16.0841 28.6394C16.1816 28.5485 16.3126 28.4984 16.4485 28.5H18.3585C18.4944 28.4981 18.6255 28.5481 18.7231 28.6391C18.8207 28.73 18.8767 28.8544 18.8789 28.985V32.848C18.8767 32.9786 18.8207 33.103 18.7231 33.1939C18.6255 33.2848 18.4944 33.3349 18.3585 33.333ZM37.2637 33.333H35.7045C35.5692 33.333 35.4391 33.2824 35.3419 33.1919C35.2448 33.1013 35.1882 32.978 35.1841 32.848V28.985C35.1882 28.855 35.2448 28.7316 35.3419 28.6411C35.4391 28.5505 35.5692 28.4999 35.7045 28.5H37.2658C37.4012 28.4999 37.5313 28.5505 37.6284 28.6411C37.7256 28.7316 37.7822 28.855 37.7863 28.985V32.848C37.7822 32.978 37.7256 33.1013 37.6284 33.1919C37.5313 33.2824 37.4012 33.333 37.2658 33.333M19.0506 63.5H17.4893C17.354 63.5 17.2239 63.4494 17.1268 63.3589C17.0296 63.2683 16.973 63.145 16.9689 63.015V59.152C16.973 59.022 17.0296 58.8986 17.1268 58.8081C17.2239 58.7175 17.354 58.6669 17.4893 58.667H19.0506C19.186 58.6669 19.3161 58.7175 19.4132 58.8081C19.5104 58.8986 19.567 59.022 19.5711 59.152V63.015C19.567 63.145 19.5104 63.2683 19.4132 63.3589C19.3161 63.4494 19.186 63.5 19.0506 63.5ZM37.092 63.5H35.5307C35.3953 63.5 35.2653 63.4494 35.1681 63.3589C35.0709 63.2683 35.0143 63.145 35.0103 63.015V59.152C35.0143 59.022 35.0709 58.8986 35.1681 58.8081C35.2653 58.7175 35.3953 58.6669 35.5307 58.667H37.092C37.2274 58.6669 37.3574 58.7175 37.4546 58.8081C37.5518 58.8986 37.6084 59.022 37.6124 59.152V63.015C37.6084 63.145 37.5518 63.2683 37.4546 63.3589C37.3574 63.4494 37.2274 63.5 37.092 63.5ZM19.0506 69.333H17.4893C17.354 69.333 17.2239 69.2824 17.1268 69.1919C17.0296 69.1013 16.973 68.978 16.9689 68.848V64.985C16.973 64.855 17.0296 64.7316 17.1268 64.6411C17.2239 64.5505 17.354 64.4999 17.4893 64.5H19.0506C19.186 64.4999 19.3161 64.5505 19.4132 64.6411C19.5104 64.7316 19.567 64.855 19.5711 64.985V68.848C19.567 68.978 19.5104 69.1013 19.4132 69.1919C19.3161 69.2824 19.186 69.333 19.0506 69.333ZM37.092 69.333H35.5307C35.3953 69.333 35.2653 69.2824 35.1681 69.1919C35.0709 69.1013 35.0143 68.978 35.0103 68.848V64.985C35.0143 64.855 35.0709 64.7316 35.1681 64.6411C35.2653 64.5505 35.3953 64.4999 35.5307 64.5H37.092C37.2274 64.4999 37.3574 64.5505 37.4546 64.6411C37.5518 64.7316 37.6084 64.855 37.6124 64.985V68.848C37.6084 68.978 37.5518 69.1013 37.4546 69.1919C37.3574 69.2824 37.2274 69.333 37.092 69.333Z" fill="#2E2E2E"/>
<path fill-rule="evenodd" clip-rule="evenodd" d="M27.2912 51.833C26.8624 51.833 26.4432 51.7108 26.0866 51.4819C25.7301 51.2531 25.4522 50.9277 25.2881 50.5471C25.124 50.1665 25.0811 49.7477 25.1647 49.3436C25.2484 48.9396 25.4549 48.5684 25.7581 48.2771C26.0613 47.9858 26.4476 47.7874 26.8682 47.707C27.2888 47.6266 27.7247 47.6679 28.1209 47.8256C28.5171 47.9832 28.8557 48.2502 29.0939 48.5927C29.3321 48.9353 29.4593 49.338 29.4593 49.75C29.4593 50.3024 29.2309 50.8323 28.8243 51.2229C28.4177 51.6135 27.8662 51.833 27.2912 51.833ZM27.2912 64.5C26.8624 64.5 26.4432 64.3778 26.0866 64.1489C25.7301 63.9201 25.4522 63.5947 25.2881 63.2141C25.124 62.8335 25.0811 62.4147 25.1647 62.0106C25.2484 61.6066 25.4549 61.2354 25.7581 60.9441C26.0613 60.6528 26.4476 60.4544 26.8682 60.374C27.2888 60.2936 27.7247 60.3349 28.1209 60.4926C28.5171 60.6502 28.8557 60.9172 29.0939 61.2597C29.3321 61.6023 29.4593 62.005 29.4593 62.417C29.459 62.9694 29.2305 63.499 28.824 63.8896C28.4174 64.2802 27.8661 64.4997 27.2912 64.5Z" fill="white"/>
<path fill-rule="evenodd" clip-rule="evenodd" d="M18.0098 42H36.7454L34.6637 72.133C34.6285 72.64 34.3937 73.1152 34.0071 73.462C33.6204 73.8088 33.1109 74.0011 32.5819 74H22.1733C21.6443 74.0011 21.1348 73.8088 20.7481 73.462C20.3615 73.1152 20.1267 72.64 20.0915 72.133L18.0098 42Z" fill="#999999"/>
<path fill-rule="evenodd" clip-rule="evenodd" d="M19.9777 43.7778H34.7798L32.313 72.2208H22.4445L19.9777 43.7778Z" fill="white" fill-opacity="0.8"/>
<path fill-rule="evenodd" clip-rule="evenodd" d="M16.001 23.0559L17.1387 24.1479C17.242 24.247 17.3029 24.3798 17.3094 24.5199H18.5022C18.5826 24.5197 18.6602 24.4912 18.7202 24.4398C18.7802 24.3884 18.8186 24.3176 18.828 24.2409V24.2049V23.6899H19.1652V24.1999C19.1652 24.3607 19.1018 24.5155 18.9879 24.6332C18.874 24.751 18.718 24.8231 18.5511 24.8349H18.5022H17.224L17.2063 24.8599L17.1387 24.9379C17.0841 24.9906 17.0192 25.0325 16.9478 25.061C16.8763 25.0896 16.7997 25.1043 16.7223 25.1043C16.6449 25.1043 16.5683 25.0896 16.4968 25.061C16.4254 25.0325 16.3605 24.9906 16.306 24.9379L15.1725 23.8519C15.062 23.7458 15 23.6019 15 23.4519C15 23.3019 15.062 23.158 15.1725 23.0519C15.2829 22.9458 15.4326 22.8862 15.5888 22.8862C15.745 22.8862 15.8947 22.9458 16.0052 23.0519L16.001 23.0559ZM38.0153 23.0929C38.1289 22.9912 38.2799 22.937 38.4351 22.9423C38.5903 22.9475 38.737 23.0118 38.8428 23.1209C38.9487 23.2301 39.0051 23.3751 38.9996 23.5242C38.9942 23.6733 38.9273 23.8142 38.8137 23.9159L37.6375 24.9699C37.581 25.0209 37.5147 25.0606 37.4422 25.0867C37.3697 25.1129 37.2925 25.1251 37.2151 25.1224C37.1377 25.1198 37.0616 25.1026 36.9912 25.0716C36.9208 25.0406 36.8574 24.9965 36.8048 24.9419L36.7403 24.8619L36.7236 24.8359L35.4465 24.7939H35.3976C35.2311 24.7768 35.0777 24.6997 34.9682 24.5781C34.8586 24.4566 34.8012 24.2996 34.8074 24.1389L34.8261 23.6239L35.1602 23.6349L35.1415 24.1499V24.1869C35.1482 24.2634 35.1835 24.3349 35.241 24.3882C35.2984 24.4416 35.374 24.4731 35.4538 24.4769L36.6445 24.5169C36.6559 24.3767 36.7216 24.2457 36.8287 24.1499L38.0153 23.0929Z" fill="#444444"/>
<path fill-rule="evenodd" clip-rule="evenodd" d="M21.5884 41.508C20.5231 41.4893 19.5088 41.0665 18.7668 40.3319C18.0247 39.5973 17.6153 38.6106 17.6279 37.587V25.922C17.6151 24.8983 18.0243 23.9112 18.7664 23.1764C19.5084 22.4416 20.5229 22.0187 21.5884 22H32.403C33.4676 22.02 34.4807 22.4435 35.2217 23.1782C35.9626 23.9128 36.3711 24.8991 36.3583 25.922V37.587C36.3709 38.6097 35.9622 39.5957 35.2213 40.3302C34.4804 41.0647 33.4674 41.488 32.403 41.508H21.5884Z" fill="#818181"/>
<path fill-rule="evenodd" clip-rule="evenodd" d="M21.5891 41.5079C20.5656 41.5292 19.5748 41.1608 18.8329 40.483C18.0909 39.8052 17.658 38.8731 17.6286 37.8899V27.1269C17.658 26.1437 18.0909 25.2114 18.8328 24.5335C19.5747 23.8556 20.5655 23.4869 21.5891 23.5079H32.4037C33.4265 23.488 34.4161 23.8572 35.157 24.535C35.8978 25.2128 36.3298 26.1445 36.359 27.1269V37.8899C36.3298 38.8723 35.8978 39.8038 35.1569 40.4815C34.416 41.1592 33.4265 41.5281 32.4037 41.5079H21.5891Z" fill="#999997"/>
<path fill-rule="evenodd" clip-rule="evenodd" d="M18.8789 29.528V36.909L20.971 36.874V32.3L18.8789 29.528ZM35.7243 29.563V36.944L33.5239 36.909V32.335L35.7243 29.563ZM20.5005 27.424L22.3793 31.063C23.8516 30.3419 25.4798 29.9634 27.1324 29.9582C28.7849 29.953 30.4157 30.3212 31.8928 31.033L33.7383 27.395C33.7383 27.395 27.2537 22.767 20.4985 27.424" fill="white"/>
<path opacity="0.1" fill-rule="evenodd" clip-rule="evenodd" d="M22.97 40.1628C22.8795 40.1623 22.7928 40.1275 22.7289 40.0658C22.6649 40.0042 22.6289 39.9208 22.6286 39.8338V32.6158C22.6286 32.5289 22.6646 32.4454 22.7286 32.3839C22.7927 32.3224 22.8795 32.2878 22.97 32.2878C23.0606 32.2878 23.1474 32.3224 23.2114 32.3839C23.2755 32.4454 23.3114 32.5289 23.3114 32.6158V39.8338C23.3112 39.9208 23.2751 40.0042 23.2112 40.0658C23.1473 40.1275 23.0606 40.1623 22.97 40.1628ZM25.7231 40.1628C25.6326 40.1623 25.5459 40.1275 25.482 40.0658C25.418 40.0042 25.382 39.9208 25.3817 39.8338V32.6158C25.3866 32.5319 25.4247 32.4528 25.4883 32.395C25.5519 32.3372 25.6361 32.305 25.7237 32.305C25.8112 32.305 25.8954 32.3372 25.959 32.395C26.0226 32.4528 26.0608 32.5319 26.0656 32.6158V39.8338C26.0653 39.921 26.0291 40.0045 25.965 40.0662C25.9008 40.1278 25.8139 40.1626 25.7231 40.1628ZM28.3097 40.1628C28.2191 40.1623 28.1325 40.1275 28.0685 40.0658C28.0046 40.0042 27.9686 39.9208 27.9683 39.8338V32.6158C27.9731 32.5319 28.0112 32.4528 28.0748 32.395C28.1384 32.3372 28.2227 32.305 28.3102 32.305C28.3978 32.305 28.482 32.3372 28.5456 32.395C28.6092 32.4528 28.6473 32.5319 28.6521 32.6158V39.8338C28.6519 39.921 28.6157 40.0045 28.5515 40.0662C28.4874 40.1278 28.4004 40.1626 28.3097 40.1628ZM31.0336 40.1628C30.9431 40.1623 30.8564 40.1275 30.7925 40.0658C30.7285 40.0042 30.6925 39.9208 30.6922 39.8338V32.6158C30.6971 32.5319 30.7352 32.4528 30.7988 32.395C30.8624 32.3372 30.9466 32.305 31.0342 32.305C31.1217 32.305 31.2059 32.3372 31.2695 32.395C31.3331 32.4528 31.3713 32.5319 31.3761 32.6158V39.8338C31.3758 39.921 31.3396 40.0045 31.2755 40.0662C31.2113 40.1278 31.1244 40.1626 31.0336 40.1628Z" fill="black"/>
</svg>
